<svg viewBox="0 0 261.67 286.99" xmlns="http://www.w3.org/2000/svg" xmlns:xlink="http://www.w3.org/1999/xlink"><linearGradient id="a" gradientUnits="userSpaceOnUse" x1="50.01" x2="227.49" y1="-9.11" y2="225.7"><stop offset="0" stop-color="#306bb2"/><stop offset=".15" stop-color="#2e65a7"/><stop offset="1" stop-color="#183966"/></linearGradient><linearGradient id="b" x1="61.38" x2="219.01" xlink:href="#a" y1="8.28" y2="216.84"/><path d="m258.44 28.59c-25.53-13.66-61.7-26.7-127.59-26.7s-96.74 11.5-127.58 26.7c-2.91 1.44-3.83 109.79 25.65 167.33 31.12 60.75 73.64 76.99 101.93 89.01 28.29-12.02 70.81-28.26 101.93-89.01 29.48-57.54 28.52-165.8 25.65-167.33z" fill="#fff"/><path d="m130.85 286.99-3.75-1.59c-27.68-11.7-69.52-29.37-99.87-88.62-28.88-56.39-28.87-159.73-26.04-168.3.09-.29.38-1.16 1.24-1.59 33.68-16.6 66.91-26.89 128.42-26.89 69.29 0 105.06 14.39 128.48 26.92.96.52 2.29 1.22 2.34 20.36.02 7.69-.22 23.65-2.05 44.14-2.79 31.11-9.41 74.64-25.16 105.36-30.35 59.24-72.18 76.91-99.86 88.61l-3.76 1.59zm-126.16-256.99c-1.94 8.33-2.73 109.14 25.91 165.06 29.72 58.02 69.17 74.69 97.97 86.86l2.28.96 2.29-.97c28.8-12.17 68.24-28.84 97.96-86.85 28.59-55.8 27.83-156.9 25.9-165.1-23.04-12.26-58.24-26.19-126.15-26.19-60.42.01-93.17 10.03-126.16 26.23zm252.85.25s0 0 0 0z" fill="url(#a)"/><path d="m251.93 34.44c-24.22-12.97-58.55-25.34-121.08-25.34s-91.81 10.91-121.08 25.34c-2.76 1.36-3.63 104.2 24.34 158.81 29.54 57.65 69.89 73.07 96.74 84.48 26.85-11.41 67.2-26.82 96.74-84.48 27.98-54.61 27.06-157.35 24.35-158.81zm-182.18 123.66s-1.87-20.88-1.21-24.16c4.8-23.99 117.08-33.58 152.1-35.09 0 0-137.12 22.21-150.89 59.25zm-2.45-36.75s-2.42-18.21 2.88-21.4c10.18-6.13 100.74-13.78 159.86-4.59 0 0-147.99 1.71-162.75 25.99zm-5.97-29.71c.12 33.84 4.08 81.85 19.08 146.39 0 0-22.61-49.24-25.15-142.8-.02-.9-.04-1.71-.06-2.59-17.05 2.91-25.41 5.29-26.68 3.59-2.87-3.85-18.06-9.59 26.45-13.4-1.62-79.1 4.72-59.49 9.54-56.56 2.63 1.6-2.45 18.98-3.1 56.06 9.31-.68 20.76-1.28 34.89-1.78 90.96-3.25 144.53 11.62 144.53 11.62-90.38-10.95-147.51-5.55-179.5-.53z" fill="url(#b)"/><g fill="#96999a"><path d="m69.75 158.1s-.7-7.85-1.1-14.68c-.25-4.31 21.38-25.09 151.98-44.57 0 0-137.12 22.21-150.89 59.25z"/><path d="m67.3 121.35s-.37-2.79-.5-6.38c-.21-5.58 50.33-20.53 163.25-19.6 0 0-147.99 1.71-162.75 25.99z"/></g></svg>