<svg viewBox="0 -113.55 444 444" xmlns="http://www.w3.org/2000/svg"><g fill="#003874"><path d="m35.8 109.1c-.3 0-.6-.2-.7-.5 0-.4 0-.8.4-.9 1.2-.4 2.5-.9 3.7-1.3.4 0 .8 0 .9.5 0 .4 0 .8-.5.9-1.2.4-2.5.8-3.7 1.3 0 0 0 0-.1 0zm10.7-3.5c-.4 0-.7-.4-.7-.8s.2-.6.5-.7l2.8-.8c.4 0 .8 0 .9.5 0 .4 0 .8-.5.9-.9.3-1.9.6-2.8.8 0 0-.1 0-.2 0zm9.9-2.8c-.3 0-.6-.2-.7-.6 0-.4 0-.8.5-.9 4.7-1.2 9.5-2.3 14.4-3.3.4 0 .8.2.9.6 0 .4-.2.8-.6.9-4.8 1-9.6 2.1-14.3 3.3-.1-.1-.1 0-.2 0zm110.5-2.7h-.2c-4.7-1.4-9.4-2.5-14.2-3.2-.4 0-.7-.4-.6-.8s.4-.7.8-.6c4.9.7 9.7 1.8 14.4 3.3.4 0 .6.5.5.9-.2.2-.4.4-.7.4zm-88.9-2c-.4 0-.7-.4-.7-.8s.3-.6.6-.7c1-.2 1.9-.3 2.9-.5.4 0 .8.2.8.6s-.2.8-.6.8c-1 0-1.9.3-2.9.5h-.1zm10.1-1.5c-.4 0-.7-.4-.7-.8s.3-.6.6-.7c4.9-.6 9.8-1.1 14.7-1.5.4 0 .7.2.8.6 0 .5-.3.8-.7.9-4.8.3-9.7.8-14.6 1.5zm57.2-.8-3-.3c-.4 0-.7-.4-.7-.8s.4-.7.8-.7l2.9.3c.4 0 .7.4.7.8s-.3.8-.7.7zm-10.3-.9c-4.7-.3-9.5-.4-14.4-.4h-.3c-.4 0-.8-.2-.8-.6s.2-.8.6-.8h.5c4.9 0 9.7.2 14.4.4.4 0 .7.4.6.8.1.3-.2.6-.6.6zm-25-.2c-.4 0-.7-.3-.7-.7s.3-.7.7-.7h3c.4 0 .7.3.6.7 0 .3-.3.6-.6.6h-3z"/><path d="m45.1 116.4c-.3 0-.6-.2-.7-.5 0-.4 0-.8.4-.9 1.2-.4 2.5-.9 3.7-1.3.4 0 .8 0 .9.5 0 .4 0 .8-.5.9-1.2.4-2.5.8-3.7 1.3zm10.7-3.5c-.4 0-.7-.4-.7-.8s.2-.6.5-.7l2.8-.8c.4 0 .8 0 .9.5 0 .4 0 .8-.5.9l-2.8.8s0 0-.2 0zm12.7-3.6c-.4 0-.7-.3-.7-.7s.2-.6.6-.7c3.8-.9 7.7-1.8 11.5-2.6.4 0 .8.2.8.6s-.2.7-.6.8c-3.8.8-7.7 1.6-11.4 2.6zm107.6-1.9h-.2c-3.7-1.1-7.5-2.1-11.3-2.7-.4 0-.7-.4-.6-.8.1-.4.4-.7.8-.6 3.9.7 7.7 1.6 11.5 2.8.4 0 .6.5.5.9-.1.2-.4.4-.7.4zm-88.9-2c-.4 0-.7-.4-.6-.9 0-.3.2-.5.5-.6l2.9-.5c.4 0 .8.2.8.6s-.2.8-.6.8l-2.9.5h-.1zm13.1-1.8c-.4 0-.7-.3-.7-.7s.2-.8.6-.8c3.9-.5 7.8-.8 11.7-1.1.4 0 .8.3.8.7s-.3.7-.7.8c-3.8.2-7.8.6-11.7 1.1zm54.2-.4-3-.3c-.4 0-.7-.4-.6-.8s.4-.6.8-.6l2.9.3c.4 0 .7.4.6.8 0 .3-.3.6-.7.6zm-10.2-1c-3.8-.2-7.7-.4-11.7-.4s-.7-.3-.7-.8.3-.7.7-.7c4 0 8 .2 11.8.4.4 0 .7.4.6.8 0 .4-.3.7-.7.7zm-25-.2c-.4 0-.7-.4-.6-.8 0-.3.3-.6.6-.6h3c.4 0 .7.2.7.6s-.3.7-.7.8c-1 0-1.9 0-3 0z"/><path d="m54.1 124.6c-.3 0-.6-.2-.7-.5 0-.4 0-.8.4-.9.8-.3 1.6-.6 2.4-.8.4-.2.8 0 1 .3.2.4 0 .8-.3 1 0 0 0 0-.2 0l-2.3.8c-.1 0-.2 0-.3 0zm8-2.7c-.3 0-.6-.2-.7-.5 0-.4 0-.8.5-.9 6-1.9 12.2-3.6 18.5-5.1.4 0 .8.2.9.5 0 .4-.2.8-.5.9-6.2 1.5-12.3 3.2-18.3 5.1zm25.5-6.7c-.4 0-.7-.4-.7-.8s.2-.6.6-.7c1-.2 1.9-.4 2.9-.6.4 0 .8.2.9.6s-.2.8-.6.9l-2.9.6zm8.7-1.6c-.4 0-.7-.4-.7-.8s.3-.6.6-.7c6.2-1.1 12.6-1.9 19-2.5.4 0 .7.2.8.6 0 .5-.3.9-.7.9-6.3.6-12.7 1.4-18.9 2.5zm26.2-3.1c-.4 0-.7-.4-.6-.8 0-.3.3-.6.6-.6l2.9-.2c.4 0 .7.3.8.7 0 .4-.3.8-.7.8l-2.9.2h-.1zm27.9-.3c-3.7-.2-7.5-.3-11.3-.3-2.5 0-5 0-7.6 0-.4 0-.7-.3-.7-.7 0-.4.3-.7.7-.8 2.7 0 5.2-.2 7.8 0 3.8 0 7.6 0 11.3.3.4 0 .7.3.7.7s-.3.8-.8.8z"/><path d="m66.1 135.6c-.4 0-.7-.3-.7-.8s.2-.6.5-.7l2.4-.8c.4-.1.8.1.9.5 0 .4 0 .8-.5.9l-2.3.8c-.2 0-.2.1-.3.1zm5.1-1.8c-.4 0-.7-.3-.8-.7 0-.3.2-.6.5-.7 6.9-2.3 14.1-4.3 21.3-6 .4 0 .8 0 .9.5 0 .4 0 .8-.5.9-7.2 1.7-14.3 3.7-21.1 6 0 0-.2 0-.3 0zm28.4-7.6c-.4 0-.7-.3-.8-.7 0-.4.2-.7.6-.8l2.9-.6c.4 0 .8.2.9.6s-.2.8-.6.9l-2.9.6zm5.7-1.1c-.4 0-.7-.3-.7-.6 0-.4.2-.8.6-.8 7.2-1.3 14.6-2.3 21.9-3 .4 0 .7.3.8.7 0 .4-.3.7-.6.8-7.3.7-14.6 1.7-21.8 3h-.2zm29.2-3.6c-.4 0-.7-.4-.7-.8s.3-.6.6-.7l3-.2c.4 0 .7.2.8.6 0 .5-.3.8-.7.9l-2.9.2z"/><path d="m81.9 145.2c-.3 0-.6-.2-.7-.5 0-.4 0-.8.4-.9.8-.3 1.6-.6 2.4-.8.4-.1.8.1.9.4 0 .4 0 .8-.4.9l-2.3.8c-.1.1-.2.1-.3.1zm16.4-5.2c-.3 0-.6-.2-.7-.5 0-.4 0-.8.5-.9 7-2 14.2-3.6 21.5-5 .4-.1.8.2.9.6 0 .4-.2.8-.6.9-7.2 1.4-14.4 3-21.4 5q-.1-.1-.2-.1zm28.7-6.2c-.4 0-.8-.3-.8-.7s.3-.8.7-.8l2.9-.4c.4 0 .8.2.8.6.1.4-.2.8-.6.8l-2.9.4z"/><path d="m95.4 154.6c-.3 0-.6-.2-.7-.5 0-.4 0-.8.4-.9 1.2-.4 2.5-.9 3.7-1.3.4-.1.8.1.9.5s0 .8-.5.9l-3.7 1.3s0 0-.1 0zm10.7-3.6c-.4 0-.7-.3-.7-.7s.2-.6.5-.7l2.8-.9c.4-.1.8.2.9.6 0 .4 0 .7-.5.9l-2.8.8zm17-4.5c-.4 0-.8-.2-.8-.6s.2-.8.6-.8c2.4-.6 4.8-1.1 7.2-1.5.4-.1.8.2.9.6s-.2.8-.6.9c-2.4.5-4.8 1-7.2 1.5q0 0 0 0zm14.4-2.9c-.4 0-.7-.4-.7-.8s.3-.6.6-.7l2.9-.5c.4-.1.8.2.8.6.1.4-.2.8-.6.8l-2.9.5h-.1z"/><path d="m192.8 96.8s-75.2-30.8-182 7.9l84.9 60.1s33.6-16.8 69-16.5l12.1-.3.6 5.5s-40.5-1.8-81.6 17.3l-94-66.9s103-44.7 188-13.4c0 0 4.5-1.6 7.4 0l2.3.4s-.9 1.3-6.7 5.9z"/><path d="m197.9 158.9s-52.9-6.9-101.9 16.3l-91.1-64.7s3.4-1.5 4.1-1.6l-1.6-1.1-5.5 2.4 93.8 66.8s41.2-22.3 102.2-16z"/><path d="m197.9 164.5s-52.9-6.9-101.9 16.3l-91.1-64.7s3.4-1.5 4.1-1.6l-1.6-1.1-5.5 2.4 93.9 66.8s41.2-22.3 102.2-16v-2.1z"/><path d="m197.9 169.9s-52.9-6.9-101.9 16.3l-91.1-64.7s3.4-1.5 4.1-1.7l-1.6-1.1-5.5 2.4 93.8 66.9s41.2-22.3 102.2-16z"/><path d="m197.9 175.5s-52.9-6.9-101.9 16.3l-91.1-64.8s3.4-1.5 4.1-1.7l-1.6-1.1-5.5 2.5 93.9 66.8s41.2-22.4 102.2-16v-2z"/><path d="m0 132.5v11.8l95.7 72.6s50.3-32.1 122.8-17.6c0 0 22.4-31.5.9-46.3s-50.8-22.6-51.4-32.1 33-19.7 138-22.6c2.3 0 17.7-3.2 1.2-9.8-33.6-13-70-13.1-117.3 1.8l3 6.4s60.3-25.7 112.5-5.2c0 0 3.8 1.8-.1 2.4-3.4.5-116.2-7.6-162.5 22.8 0 0-17.9 11.9 15.4 28.4s53.7 10.5 25.9 39.9c0 0-49.3-4-88.2 19.7z"/><path d="m443.3 200.9v10.6s-72.9-26.5-146.5-13.6c0 0-3.1-26.3-33.9-49.1s-49.7-25-52.1-31.5 49.8-6.7 98.2-13.4c34-4.7 32.1-11.4 4-19.9-12-3.6-29.8-8.2-51.3-7.9 0 0-37.8-.7-71.7 14.3 0 0 53-30.8 124.9-9.4 69.9 20.8 5.3 28.9-23.4 31.4-48.3 4.9-63.4 3.4-54.5 7.3 18.2 7.4 68 21 84.7 65.3 0 .1 53.5-4.1 121.6 15.9z"/><path d="m271 147.5c-.3 0-.6-.2-.7-.4-.2-.4 0-.8.3-1 5.3-2.3 10.9-4.2 16.5-5.4.4-.1.8.1.9.5.1.4-.2.8-.5.9-5.6 1.3-11 3.1-16.3 5.4 0-.1 0-.1-.2 0zm109.4-.3h-.2c-7.1-2-14.3-3.6-21.4-4.9-.4-.1-.7-.5-.6-.9 0-.4.4-.7.8-.6h.1c7.2 1.3 14.4 3 21.5 4.9.4.1.6.5.5.9 0 .3-.4.5-.7.6zm-81.7-7.5c-.4 0-.7-.3-.7-.7s.3-.7.6-.7c1-.2 1.9-.3 2.9-.5.4-.1.8.2.8.6.1.4-.2.8-.6.8-1 .1-1.9.3-2.9.5zm45.6.4-3-.3c-.4 0-.7-.4-.7-.8.1-.4.4-.7.8-.7l2.9.3c.4.1.7.4.6.8.1.4-.2.6-.6.7zm-10.2-1c-7.3-.5-14.7-.6-22-.3-.4 0-.7-.3-.8-.7 0-.4.3-.7.7-.8 7.4-.3 14.7-.2 22.1.3.4.1.7.4.6.8 0 .4-.3.6-.6.7z"/><path d="m266.1 133.6c-.3 0-.6-.2-.7-.6s.1-.8.5-.9l2.9-.7c.4-.1.8.2.9.6s-.2.8-.5.9l-2.9.7zm10-2.2c-.4 0-.7-.3-.8-.7 0-.4.3-.7.6-.7 2.4-.5 4.8-.9 7.3-1.3.4 0 .8.3.8.7s-.2.7-.6.8c-2.4.4-4.9.8-7.2 1.2zm81.8-.4h-.1c-2.4-.4-4.8-.8-7.2-1.1-.4-.1-.7-.4-.6-.8 0-.4.4-.7.8-.6 2.4.3 4.8.7 7.3 1.1.4.1.6.5.6.9-.2.3-.5.5-.8.5zm-67.2-1.8c-.4 0-.7-.3-.7-.6-.1-.4.2-.8.6-.8l2.9-.3c.4 0 .8.3.8.7s-.2.8-.6.8zm52.8-.2-3-.3c-.4 0-.7-.4-.7-.8.1-.4.4-.7.8-.7l2.9.3c.4 0 .7.4.7.8 0 .4-.4.7-.7.7zm-42.6-.8c-.4 0-.7-.4-.7-.8s.3-.6.6-.7c2.4-.2 4.9-.3 7.4-.4.4 0 .7.3.8.7 0 .4-.3.7-.7.8-2.5 0-4.9.2-7.4.4zm32.3-.1c-2.5-.2-4.9-.3-7.3-.4-.4 0-.7-.3-.7-.7s.3-.7.7-.7c2.4 0 4.9.2 7.4.4.4 0 .7.4.7.8-.1.3-.4.6-.8.6zm-17.6-.5c-.4 0-.7-.3-.7-.7s.3-.7.7-.7h3c.4 0 .7.4.6.8 0 .3-.3.6-.6.6z"/><path d="m240.2 126.4c-.3 0-.6-.2-.7-.5-.1-.4.1-.8.4-.9 7-2.3 14.2-4 21.5-5.2.4 0 .8 0 .9.5s-.1.8-.5.9h-.2c-7.2 1.1-14.3 2.8-21.3 5.1zm28.7-6.3c-.4 0-.7-.3-.7-.6-.1-.4.2-.8.6-.8 1 0 1.9-.3 2.9-.4.4 0 .8.2.8.6.1.4-.2.8-.6.8l-2.9.4zm10.2-1.2c-.4 0-.7-.3-.8-.7 0-.4.3-.7.7-.8 7.2-.8 14.6-1.3 22-1.6.4 0 .7.4.6.8 0 .3-.3.6-.6.6-7.3.4-14.7.9-21.9 1.7zm61.6-.8c-6.6-.7-14-1.1-22-1.2-.4 0-.7-.4-.6-.8 0-.3.3-.6.6-.6 8 0 15.4.5 22 1.2.4 0 .7.4.7.8 0 .3-.4.6-.7.6zm-32.3-1.1c-.4 0-.7-.4-.6-.8 0-.3.3-.6.6-.6h2.9c.4 0 .7.4.6.8 0 .3-.3.6-.6.6z"/><path d="m443.2 173.6-103.4-72.7-2.6 2.3 1.7 1.5 89 61.1s-67.7-26.7-130.7-15l-2.9 5.7 8-.8s55.3-10.4 140.9 17.9z"/><path d="m307.7 161.4s56.7-7.6 135.5 18.3l-17.9-12.7-3.1-.3 12.4 8.7s-64-22-128.1-15.3l-2.3 1.9z"/><path d="m307.7 166.6s56.7-7.6 135.5 18.3l-17.3-12.1-3.1-.3 11.8 8.1s-64-22-128.1-15.3l-2.3 1.9z"/><path d="m307.7 171.9s56.7-7.6 135.5 18.3l-16.4-11.6-3.4-.5 11.1 7.7s-64-22-128.1-15.3l-2.3 1.9z"/><path d="m307.7 177.1s56.7-7.6 135.5 18.3l-16.8-11.9-4.2-1.1 12.4 8.7s-64-22-128.1-15.3l-2.3 1.9z"/><circle cx="50.7" cy="9.7" r="9.7"/><circle cx="132" cy="43" r="7"/><g fill-rule="evenodd"><path d="m1.9 50.4s23.3-29.8 48.8-29.6c0 0 20.3-1.2 50.5 22.9l-31.5-7.3c-6.6-1.2-10.3 4.6-9.7 9.7 1.4 11.3 9.7 38.7 23.7 62.5 0 0-22-16.6-30.7-35.8 0 0-.8-1-1.4.4s.5 24.6 7 42.5c0 0-25.3-23.2-23.1-66.6 0 0 1-12.3-11.3-9.2z"/><path d="m168 72.9s-16.1-21.2-35.1-21.7-15.8 7.3-33.6-6.3c0 0 1.3 11 20.4 15.3 0 0 19 .6-11.7 55.5 0 0 17.7-11.8 22.6-26.5.2-.5 1.1-.9.9.4-.1 1.2-5.1 31.3-5.1 31.3s19.5-22.1 17.1-49.5c-.6-7.2 6.4-6.7 7.9-6 1.3.6 16.6 7.5 16.6 7.5z"/></g></g></svg>