<svg viewBox="0 -20.205 167.34 167.34" xmlns="http://www.w3.org/2000/svg"><path d="m125.88 58.25c-1.71.02-2.23.87-2.23.87s.12-.22 1.24-.22c1.09 0 2.31.42 4.39.36 1.93-.06 2.57-1.1 2.57-1.1s-.54.35-2.19.39c-1.36.04-1.63-.32-3.78-.29zm5.35-2.84c-3.33-.13-3.73.53-5.84.4-2.55-.16-3.41-.83-3.41-.83s1.04 2.01 4.03 2.21c3.21.21 5.1-.55 6.78-.5 1.73.04 1.93.47 1.93.47s-.86-1.64-3.5-1.75zm-89.82.57c-3.34-.14-3.75.49-5.87.35-2.58-.17-3.44-.81-3.44-.81s1.05 1.92 4.07 2.13c3.24.22 5.14-.5 6.83-.44 1.74.06 1.94.46 1.94.46s-.87-1.57-3.53-1.69zm1.16 2.96c-2.26 0-2.54.38-3.98.34-1.73-.04-2.3-.41-2.3-.41s.67 1.14 2.71 1.2c2.19.06 3.48-.42 4.62-.42s1.31.24 1.31.24-.55-.93-2.35-.95zm91.32-8.97c-.62.27-1.42.49-2.48.52-3.34.1-5.32-.59-7.06-.58-1.8 0-2 .36-2 .36s.85-1.37 3.6-1.4c3.46-.04 3.89.53 6.08.47.41-.01.77-.04 1.11-.07-.38-.43-.65-.9-.7-1.39-.46-3.99 4.07-9.7 4.07-9.7s-7.74.28-10.19-3.73c-2.57-4.22 5.85-13.94 5.85-13.94s-12.07 5-15.52 2.31-1.19-11.04-1.19-11.04-6.78 4.68-10.8 2.73c-4.45-2.17-2.54-14.5-2.54-14.5s-5.19 10.94-10.71 10.38c-5.53-.57-8.22-8.55-8.22-8.55s-1.56 8.01-6.99 8.98c-5.23.94-12.06-10.81-12.06-10.81s3.74 13.18-1.74 15.59c-5.43 2.39-11.47-3.81-11.47-3.81s2.74 7.27-.47 10.98c-3.21 3.73-16.57-3.07-16.57-3.07s7.65 10.18 5.42 13.95c-2.24 3.77-9.42 4.53-9.42 4.53s5.87 5.25 5.71 10.32c-.05 1.76-1.82 3.01-4.1 3.89.5.09 1.11.18 1.9.24 2.19.16 2.58-.32 6.03-.12 2.75.16 3.68 1.42 3.68 1.42s-.21-.33-2-.42c-1.75-.09-3.68.42-7.02.17-1.6-.12-2.67-.59-3.34-1.02-3.17 1.08-7.03 1.53-8.74 1.68.05.02.1.04.15.06 1.81.67 4.16.92 6.1 1.03 4.66.28 5.56-1.25 12.9-.97 1.19.04 2.69.25 3.98.71.21-1.63.59-3.21 1.05-4.76-.57.13-1.26.22-2.15.22-3.33-.03-5.31-.57-7.06-.62-1.79-.06-1.98.19-1.98.19s.8-.95 3.54-.88c3.45.08 3.9.5 6.08.52.71 0 1.28-.01 1.75-.05 4.57-14.3 19.29-24.78 36.79-24.78 18.36 0 33.67 11.53 37.4 26.9 2.27.22 2.93-.27 6.78.14 3.23.33 4.25 1.91 4.25 1.91s-.24-.4-2.34-.61c-2.05-.2-4.35.33-8.27-.16-.06 0-.1-.02-.15-.03.08.39.18.77.25 1.17 1.12.23 2.47.42 4.1.51 6.37.35 12.62-2.01 19.13-1.22-2.31-.44-7.78-1.65-10.4-3.66zm-8.79-3.58c1.37.04 1.63-.32 3.78-.3 1.71.02 2.23.87 2.23.87s-.12-.22-1.24-.22c-1.09 0-2.31.42-4.39.37-1.93-.07-2.57-1.1-2.57-1.1s.54.35 2.19.38zm-82.09.37c-1.15 0-2.44.48-4.62.42-2.04-.06-2.7-1.2-2.7-1.2s.57.37 2.3.41c1.43.04 1.72-.36 3.98-.34 1.8.02 2.34.95 2.34.95s-.12-.24-1.3-.24z" fill="#00afb2"/><path d="m118.42 115.83s4.49 1.4 3.93-3.3c0 0-.42 3.09-3.93 3.3zm-13.13-9.93c-.99.04-1.77.88-1.74 1.88.04.99.88 1.77 1.88 1.73.99-.04 1.77-.88 1.73-1.88-.04-.99-.87-1.77-1.87-1.73zm18.18 10.63s4.49 1.4 3.93-3.3c0 0-.42 3.09-3.93 3.3zm10.95-3.15s-.43 3.08-3.93 3.29c0 0 4.49 1.4 3.93-3.29zm21.74-10.5-.99-.72c-3.51 4.84-8.12 8.84-13.46 11.66-28.03-13.68-50.71-12.51-51.67-12.49l-.08.02c7.8 11.82 21.02 18.69 35.19 18.14 5.62-.22 10.92-1.58 15.7-3.85 6.52 2.99 13.37 6.69 20.33 11.3l.67-1.01c-6.4-4.62-12.71-8.37-18.8-11.42 5.19-2.87 9.66-6.85 13.11-11.61zm-27.78 15.1c.74-.43 1.28-1.33 1.06-3.14 0 0-.42 3.09-3.93 3.3 0 0 .12.04.3.08-.24.01-.47.04-.72.04-.96 0-1.92-.04-2.87-.11.76-.42 1.33-1.31 1.11-3.16 0 0-.33 2.25-2.62 3.03-1.32-.15-2.63-.37-3.92-.66.88-.35 1.59-1.25 1.35-3.28 0 0-.32 2.17-2.51 2.99-7.39-1.94-14.12-6.24-19.3-12.9 3.19-.08 8.52.18 15.99 1.84 5.88 1.31 12.72 3.26 20.16 6.12-.39.93-1.36 2.3-3.67 2.44 0 0 3.82 1.18 3.97-2.32 2.15.83 4.33 1.73 6.56 2.72-3.42 1.51-7.09 2.55-10.96 3.03zm-58.92-18.04c-19.4-1.38-31.78 4.07-42 3.79-10.5-.28-16.93-4.29-16.93-4.29s8.99 12.73 25.06 14.56c19.53 2.23 29.77-2.18 42.44-.11 14.01 2.29 17.55 8.88 17.55 8.88s-8.05-21.53-26.12-22.82zm-21.57-27.63c8.8.12 11.54 2.27 11.54 2.27s-3-6.65-13.29-6.82c-11.05-.19-17.78 2.69-23.58 2.8-5.96.11-9.81-1.63-9.81-1.63s5.76 5.76 14.87 5.69c11.44-.09 13.02-2.4 20.27-2.31zm74.52 4.39c-9.72-.57-12.95-3.28-12.95-3.28s3.89 8.09 15.28 8.81c12.23.77 19.41-2.34 25.82-2.19 6.57.16 10.99 2.43 10.99 2.43s-6.87-7.16-16.93-7.53c-12.65-.44-14.19 2.23-22.21 1.76zm-2.46-4.6c2.75-.03 5.84 1.51 11.09 1.21 4.88-.28 6.5-4.17 6.5-4.17s-1.37 1.29-5.54 1.51c-3.43.18-4.11-1.12-9.53-.98-4.32.12-5.65 3.29-5.65 3.29s.31-.82 3.13-.86zm-48.48 3.52c8.91-1.28 14.71 1.17 25.94 1.63 11.41.47 13.3-8.94 13.3-8.94s-2.73 2.72-10.14 3.03c-9.28.39-12.99-3.23-26.81-2.18-13.83 1.06-14.6 11.17-14.6 11.17s3.4-3.43 12.32-4.71zm71.37 15.52c-12.45-.49-22.18-6.03-45.26-9.57-23.07-3.54-30.92 15.81-30.92 15.81s7.78-6.01 23.1-4.79c17.13 1.36 25.87 5.23 43.31 7.32 22.06 2.65 34.28-12.02 34.28-12.02s-5.94 3.98-24.5 3.24zm-92.99 2.52c16.66-.73 24-12.27 24-12.27s-5.22 3.19-14.49 4.24c-9.89 1.1-18.2-4.6-36.82-4.29-18.63.32-22.54 14.87-22.54 14.87s5.43-5.16 17.66-6.17c12.23-1 13.35 4.45 32.18 3.62z" fill="#002b5c"/></svg>