<svg viewBox="0 -2.289999999999992 322.06 322.06" xmlns="http://www.w3.org/2000/svg"><g fill="#181e24"><path d="m162.99 300.98c-78.86 0-143.03-64.16-143.03-143.03s64.17-143.02 143.03-143.02 143.03 64.16 143.03 143.02-64.16 143.03-143.03 143.03zm0-281.51c-76.36-0-138.48 62.13-138.48 138.49s62.12 138.49 138.49 138.49 138.49-62.13 138.49-138.49-62.14-138.49-138.5-138.49z"/><path d="m82.22 158.15c0-9.82 7.23-17.89 17.33-17.89 3.95 0 7.9 1.47 10.78 4.52.73-.56 1.47-1.64 1.75-3.05h1.02v12.42h-1.13c-1.58-7.34-5.93-11.35-12.19-11.35-9.03 0-12.14 8.36-12.14 15.35s3.11 15.35 12.14 15.35c6.27 0 10.61-4.12 12.19-11.34h1.13v12.42h-1.02c-.28-1.35-1.02-2.54-1.75-3.05-2.88 2.99-6.83 4.52-10.78 4.52-10.1 0-17.33-8.07-17.33-17.9z"/><path d="m142.67 173.9c4.69 0 5.36-.96 5.36-6.6v-18.35c0-5.65-.68-6.55-5.36-6.55v-1.19h25.74l.51 7.56h-1.19l-.28-1.13c-.74-2.82-1.35-4.23-6.55-4.23h-8.13v12.64h2.6c5.64 0 6.55-.56 6.55-5.3h1.19v12.81h-1.19c0-4.74-.9-5.3-6.55-5.3h-2.6v8.18c0 5.65.68 6.44 5.36 6.44h4.63c5.19 0 5.81-1.41 6.55-4.29l.28-1.13h1.19l-.45 7.62h-27.66v-1.19z"/><path d="m206.62 147.2v20.1c0 5.64.74 6.6 5.42 6.6v1.19h-13.21v-1.19c4.69 0 5.36-.96 5.36-6.6v-18.35c0-5.65-.68-6.55-5.36-6.55v-1.19h10.16l12.42 27.38 12.47-27.38h9.88v1.19c-4.74 0-5.42.9-5.42 6.55v18.35c0 5.64.68 6.6 5.42 6.6v1.19h-15.47v-1.19c4.69 0 5.36-.96 5.36-6.6v-20.1l-12.93 28.34h-1.19l-12.93-28.34z"/></g></svg>