<svg viewBox="0 0 566.93 566.93" xmlns="http://www.w3.org/2000/svg"><g fill="#123c5f"><path d="m283.01 6.68c-90.21 0-169.26 48.6-212.42 120.97 43.33-69.94 120.74-116.55 209.06-116.55 135.75 0 245.8 110.05 245.8 245.8 0 45.59-12.46 88.24-34.08 124.84 1-.03 2.05-.04 3.03-.08 2.15-3.54 4.17-7.16 6.14-10.81 6.59-12.19 12.21-24.95 16.7-38.25 1.3-3.85 2.55-7.73 3.66-11.66 6.03-21.34 9.29-43.82 9.29-67.07 0-136.3-110.88-247.18-247.17-247.18z"/><path d="m397.19 472.81v75.72c-1.39-.49-2.99-1.03-4.72-1.62v-71.66c-1.73.89-3.45 1.81-5.21 2.67v67.28c-26.33-8.46-76.51-21.71-95.1-6.81-.61.49-1.13 1.06-1.67 1.6v-37.56c-3.59.16-7.2.27-10.83.27-1.38 0-2.75-.08-4.12-.1v37.4c-.55-.55-1.06-1.11-1.67-1.6-18.59-14.89-68.77-1.65-95.1 6.81v-64.18c-1.74-.79-3.49-1.53-5.21-2.36v68.25c-1.74.58-3.34 1.13-4.72 1.62v-72.26c-3.02-1.53-6.02-3.11-8.97-4.76v83.91c0 .09.01.19.03.28 0 .17.01.35.04.52s.06.35.1.51c.03.1.03.19.05.28.02.07.05.12.08.16.06.18.13.35.2.51.06.13.12.26.19.39.09.15.17.28.28.42.07.12.16.23.24.35.12.12.22.23.35.35.09.09.19.19.29.28.13.1.28.19.41.28.12.07.23.15.35.2.13.07.27.13.42.19.14.04.28.1.41.13.13.05.28.06.41.09.16.03.32.04.49.06.04 0 .1.01.15.01h237.35c.42-.01.81-.09 1.19-.22.09-.03.17-.06.26-.09.39-.15.76-.35 1.08-.6.04-.03.07-.07.12-.1.29-.25.57-.54.8-.87.06-.06.1-.13.15-.2.25-.36.44-.79.58-1.22.02-.04.04-.07.06-.1.01-.1.03-.18.06-.28.05-.17.07-.35.11-.52.01-.17.02-.35.02-.52.01-.09.03-.19.03-.28v-87.37c20-11.55 38.17-25.88 54.15-42.35 2.91-3 5.78-6.02 8.53-9.16-.74-.1-1.34-.25-2.05-.36-19.48 22.86-43.03 42.14-69.59 56.63z"/><path d="m279.65 11.1c-88.32 0-165.73 46.61-209.06 116.56-22.05 36.97-34.76 80.13-34.76 126.21 0 23.46 3.33 46.14 9.47 67.65 1.11 3.88 2.33 7.72 3.62 11.52 4.89.99 10.36 1.75 16.69 2.15 3.41.22 6.99.37 10.93.37 26.69 0 40.22-5.45 53.3-10.71 12.73-5.12 24.74-9.96 49.41-9.96s36.7 4.84 49.42 9.96c8.24 3.32 16.68 6.7 28.45 8.75v35.66c-9.74-1.89-17.06-4.78-24.56-7.8-13.08-5.26-26.62-10.71-53.31-10.71s-40.21 5.45-53.3 10.71c-11.58 4.66-22.67 9.04-43.12 9.8-2.04.08-4.06.16-6.29.16-4.01 0-7.57-.17-10.97-.4 1.96 3.61 3.96 7.19 6.09 10.7 7.45 12.26 15.92 23.83 25.31 34.57 2.72 3.1 5.55 6.1 8.41 9.06 16.06 16.62 34.34 31.08 54.48 42.7v3.46c2.95 1.65 5.94 3.23 8.97 4.76v-45.59c1.4-.5 3.13-1.07 4.72-1.62v49.6c1.72.82 3.47 1.57 5.21 2.36v-53.7c1.41-.46 2.95-.93 4.46-1.4v57.12c1.72.73 3.47 1.4 5.21 2.1v-60.82c11.04-3.28 23.71-6.54 35.86-8.65 8.45-1.47 16.57-2.33 23.75-2.31 3.23 0 6.32.14 9.07.56 3.63.55 6.63 1.61 9.18 3.01.77.42 1.69.73 2.33 1.25 2.68 2.15 3.93 4.97 3.93 8.9 0 .31.19.53.23.82.29 1.77 1.26 3.28 2.74 3.88v70.83c1.38.02 2.74.1 4.12.1 3.63 0 7.24-.12 10.83-.27v-70.66c1.53-.62 2.55-2.19 2.79-4.04.03-.24.19-.41.19-.66 0-3.93 1.25-6.74 3.93-8.9.78-.63 1.81-1.08 2.77-1.56 2-1 4.22-1.84 6.84-2.36 2.64-.53 5.64-.76 8.8-.86 7.28-.22 15.69.57 24.49 2.04 12.01 2.01 24.57 5.18 35.67 8.43v59.25c1.76-.75 3.47-1.57 5.21-2.36v-55.33c2.09.64 4.16 1.29 6.09 1.91v50.6c1.75-.86 3.48-1.77 5.21-2.67v-46.19c1.6.55 3.33 1.12 4.72 1.62v42.13c26.56-14.49 50.12-33.77 69.59-56.63-5.55-.84-10.46-1.94-14.8-3.3-4.95-1.55-9.42-3.32-13.95-5.14-13.09-5.26-26.63-10.71-53.33-10.71-21.94 0-34.96 3.69-46.18 7.93-6.91-1.02-13.72-1.67-20.05-1.66-4.1 0-7.89.38-11.47.98v-24.42c11.69-2.06 20.08-5.43 28.29-8.73 12.73-5.12 24.74-9.96 49.41-9.96s36.71 4.84 49.44 9.96c11.22 4.51 22.83 9.13 42.71 10.37 3.32.21 6.81.34 10.62.34 1.38 0 2.61-.06 3.89-.1 21.63-36.59 34.08-79.25 34.08-124.84 0-135.75-110.05-245.8-245.8-245.8zm-103.5 406.62c-6.56 2.16-11.44 3.93-13.24 4.61-.04.01-.09.04-.15.07-.15.06-.29.13-.42.22-.13.07-.26.13-.38.22-.13.09-.23.19-.35.28-.12.1-.23.21-.35.32-.09.1-.19.22-.28.34-.1.13-.19.24-.28.39-.09.12-.16.26-.23.39-.07.15-.15.28-.2.42-.06.15-.1.31-.16.45-.04.16-.09.32-.13.48-.03.15-.04.29-.06.45-.02.12-.03.25-.04.38 0 .05-.01.1-.02.16 0 .06-.01.12-.01.17v23.56c-13.78-8.66-26.52-18.79-38.16-30.05 2.79-1.03 5.49-2.1 8.14-3.16 12.73-5.12 24.74-9.96 49.41-9.96 10.2 0 18.17.86 24.99 2.19-10.69 2.63-20.6 5.62-28.09 8.09zm80.97-13.76c-3.04-.4-6.2-.66-9.57-.66-6.76 0-14.08.75-21.48 1.89-11.36-4.34-24.47-8.17-46.83-8.17-26.68 0-40.21 5.45-53.3 10.71-4.04 1.63-8.05 3.2-12.38 4.63-9.01-9.62-17.23-19.99-24.52-31.03 18.68-1.41 29.95-5.85 40.79-10.21 12.73-5.12 24.74-9.96 49.41-9.96s36.7 4.84 49.42 9.96c8.24 3.32 16.68 6.7 28.45 8.75v24.09zm127.58 3.49c24.69 0 36.71 4.84 49.44 9.96 3.12 1.25 6.27 2.51 9.61 3.71-11.49 11.04-24.05 20.99-37.6 29.51v-23.56c0-.06-.01-.12-.01-.17s0-.1-.01-.16c0-.13-.01-.26-.03-.38-.03-.16-.04-.31-.07-.45-.03-.16-.09-.32-.13-.48-.04-.15-.1-.31-.16-.45s-.13-.28-.2-.42c-.07-.13-.15-.26-.21-.39-.1-.13-.19-.26-.29-.39-.09-.12-.18-.22-.28-.34-.1-.11-.23-.22-.35-.32-.12-.09-.22-.19-.35-.28-.12-.09-.23-.15-.36-.22-.15-.09-.29-.16-.44-.22-.04-.03-.09-.06-.15-.07-1.81-.68-6.68-2.45-13.24-4.61-7.71-2.54-17.98-5.63-29.03-8.32 6.57-1.2 14.24-1.96 23.87-1.96zm98.46-36.14c-21.72-.55-33.19-5.05-45.13-9.85-13.09-5.26-26.63-10.71-53.33-10.71s-40.21 5.45-53.3 10.71c-7.46 3-14.74 5.88-24.4 7.77v-35.65c11.69-2.06 20.08-5.43 28.29-8.73 12.73-5.12 24.74-9.96 49.41-9.96s36.71 4.84 49.44 9.96c13.1 5.26 26.63 10.71 53.34 10.71 4.77 0 8.99-.23 12.99-.54-4.74 12.65-10.53 24.79-17.31 36.29zm4.32-46.17c-24.69 0-36.72-4.84-49.45-9.96-13.09-5.26-26.63-10.71-53.33-10.71s-40.21 5.45-53.3 10.71c-7.46 3-14.74 5.88-24.4 7.77v-76.1h102.66v-49.88h-102.66v-88.33h-49.88v88.33h-100.76v49.88h100.76v76.14c-9.74-1.89-17.06-4.78-24.56-7.8-13.08-5.26-26.62-10.71-53.31-10.71s-40.21 5.45-53.3 10.71c-12.73 5.12-24.74 9.96-49.41 9.96-5.51 0-10.3-.27-14.7-.71-7.13-22.27-11.06-45.96-11.06-70.57 0-128.05 104.18-232.23 232.23-232.23s232.23 104.18 232.23 232.23c0 24.54-3.91 48.16-11 70.38-4.91.56-10.4.89-16.75.89z"/></g></svg>