<svg viewBox="-108.64 0 693.77 693.77" xmlns="http://www.w3.org/2000/svg"><g fill="#005295"><path d="m.42 0v269.02h119.37v-199.39s-63.11-28.28-98.24-69.63z"/><path d="m43.94 0h75.86v32.75s-49.23 1.55-75.86-32.75z"/><path d="m168.29 0v177.82c75.51-8.36 86.21-48.49 86.21-48.49l-8.71-43.94s-30.19-6.62-36.52-18.86c-3.11-6.02 9.95-20.78 4.14-22.9-5.01-1.84-4.36 8.29-6.88 9.82-3.43 2.09-11.34 3.43-16.44-2.42-3.16-3.63-4.51-11.4 2.08-16.63 4.45-3.55 21.81-10.88 21.96-15.34.11-2.96-6.61-2.77-6.48-4.97.2-3.14 7.65-5.98 8.91-8.85.53-1.21.17-4.68-.62-5.25h-47.66z"/><path d="m259.07 57.62c2.34 44.08 9.11 50.57 9.11 50.57 6.02 1.56 35.18-21.01 55.55-28.81 21.44-8.2 53.51-21.76 54.33-24.34 0 0-9.42-1.08-11.91-2.84-1.4-.98-3.17-5.22-4.46-6.32-2.06-1.74-8.65-1.4-9.64-3.91-.76-1.93 1-7.05 1.06-10.56.04-2.59-1.22-10.28-4.92-10.27-5.84 0-3.67 8.87-4.14 12.02-1.21 7.95-6.3 11.1-10.09 13.23-4.28 2.42-11.86 1.53-15.13-.07-2.83-1.38-2.31-8.57-3.39-9.01-2.08-.88-10.76 2.83-11.94 5.24-2.14 4.36-.28 20.35-5.36 22.73-3.18 1.5-8.88 3.46-15.02 1.03-2.95-1.15-3.73-6.62-3.73-6.62-16.37.41-20.31-2.08-20.31-2.08z"/><path d="m451.45.36 24.81-.36v269.22h-307.97s-.61-51.3 0-51.61c75.75-38.65 91.71-63.17 118.44-95.43 20-24.15 65.28-32.73 90.88-49.02 2.28-1.45.47 4.85 21.14 3.93 11.7-.51 17.65 2.18 19.94-8.86.83-3.99-1.87-14.41-.06-15.18 2.33-.98 11.47 4.51 12.43 8.08 1.14 4.2-5.1 10.93-5.59 12.02-2.75 6.06.76 10.34 3.52 11.61 6.79 3.11 12.29-2.12 14.55-4.28 4.78-4.57 13.51-13.85 14.36-19.97.46-3.37-4.18-5.98-6.38-7.35-2.64-1.66-4.38-2.68-5.27-4.88-1.32-3.27.82-11.7-.07-15.12-.46-1.75-2.86-4.32-2.59-6.11.26-1.71 7.91-3.87 10.26-11.08 3.32-10.21-3.89-12.23-2.43-15.6z"/><path d="m0 307.56h119.79v208.91c-38.13-34.96-78.75-62.73-119.79-80.97z"/><path d="m168.29 307.56v239.31c31.61 10.43 46.38 6.37 60.66 2.49 27.94-7.59 64-35.47 101.62-70.81 10.18-9.56 26.6-24.43 27.97-25.35 17.61-11.77 32.13-29.67 74.62-40.07 10.47-2.56 32.23-2.55 43.11 1.39v-106.95h-307.98z"/></g><path d="m0 472.54v36.48c22.8 3.21 29.54 9.74 41.59 16.3 39.29 21.39 82.55 85.35 157.51 99.49 22.72 4.28 52.69 3.73 84.84-7.71 16.19-5.76 34.22-17.87 49.73-27.12 32.75-19.51 72.65-68.73 100.87-77.65 22.86-7.22 41.73-3.05 41.73-3.05v-51.12c-11.03-5.38-32.82-6.98-43.59-5.39-31.3 4.63-66.42 27.18-84.76 43.04-10.71 9.26-22.55 18.93-36.89 32.06-20.55 18.8-47.66 40.41-80.21 51.68-6.11 2.11-19.03 4.63-27.84 4.49-11.54-.2-22.52-1.39-29.84-3.73-16.29-5.22-37.52-15.55-57.9-33.64-15.46-13.72-30.78-26.08-44.08-35.44-15.22-10.71-38.95-27.28-71.15-38.68z" fill="#78a2d1"/><path d="m0 530.29v62.17c8.08-1.38 15.68-2.9 22.24-2.76 16.14.34 39.8 8.17 61.56 19.13 28.53 14.37 45.18 28.94 61.41 37.79 27.01 14.72 70.74 48.22 116.89 47.12 21.65-.53 39.37-7.05 54.57-17.48 19.26-13.21 37.37-30.01 47.11-41.79 7.95-9.6 16.98-17.7 27.78-28.53 12.74-12.78 28.39-24.88 38.27-31.71 12.78-8.84 32.47-19.48 46.42-22.65.51-.11 0-18.41 0-18.41-8.22-4.05-23.38-.62-30.19.83-31.57 6.66-64.46 45.42-93.61 65.93-8.19 5.77-17.49 12.86-26.81 18.45-12.94 7.76-27.1 13.11-36.68 16.99-19.96 8.09-40.51 9.27-54.79 9.61-15.59.35-39.23-2.49-61.28-10.92-17.02-6.51-33.53-17.23-43.72-23.63-14.4-9.04-30.8-24.71-47.31-39.32-13.9-12.3-27.65-23.85-42.78-30.04-9.38-3.84-27.01-9.18-39.1-10.78z" fill="#b8d1ea"/></svg>
