<svg viewBox="0 -195.62 841.89 841.89" xmlns="http://www.w3.org/2000/svg" xmlns:xlink="http://www.w3.org/1999/xlink"><filter id="a" filterUnits="userSpaceOnUse" height="507.54" width="507.54" x="167.17" y="-28.45"><feOffset dx="3" dy="7"/><feGaussianBlur result="c" stdDeviation="7"/><feFlood flood-color="#010101" flood-opacity=".2"/><feComposite in2="c" operator="in"/><feComposite in="SourceGraphic"/></filter><rect fill="none" filter="url(#a)" height="507.54" rx="11" width="507.54" x="167.17" y="-28.45"/><path d="m76.54 47.7 34.96-6.16c15.61-2.75 24.79 3.64 27.53 19.17 2.74 15.54-3.7 24.68-19.31 27.43l-29.13 5.14c-7.77 1.37-11.34 3.84-10.71 7.42.74 4.19 4.99 5.61 12.76 4.24l11.65-2.05c38.84-6.85 61.31 7.05 67.42 41.69 5.56 31.54-6.9 51.72-37.38 60.53l-29.03 5.72-23.3 4.11c-15.3 2.7-24.32-3.72-27.06-19.26-2.74-15.53 3.54-24.65 18.85-27.35l29.13-5.14c7.77-1.37 11.28-4.15 10.54-8.35-.63-3.57-4.83-4.68-12.6-3.31l-5.83 1.03c-38.84 6.85-61.37-7.36-67.59-42.63-6.11-34.64 10.26-55.39 49.1-62.24z" fill="#f3bb4d"/><path d="m242.55 177.19-1.99 23.46c-1.33 15.72-9.86 22.91-25.58 21.58l-11.79-1c-15.72-1.33-22.91-9.86-21.58-25.58l9.99-117.89c1.33-15.72 9.86-22.91 25.58-21.58 7.86.67 14.65 3.22 20.37 7.66s18.53 26.07 38.44 64.88c26.78-34.86 43.34-53.99 49.69-57.41 6.34-3.42 13.41-4.8 21.19-4.14 15.72 1.33 22.91 9.86 21.58 25.58l-9.99 117.89c-1.33 15.72-9.86 22.91-25.58 21.58l-11.79-1c-15.72-1.33-22.91-9.86-21.58-25.58l2.01-23.7c-9.86 22.99-20.58 34.16-32.17 33.49l-.47-.04c-11.32-.96-20.1-13.7-26.33-38.21z" fill="#ef445e"/><path d="m435.62 58.29c4.32-8.29 9.06-12.69 14.24-13.21s10.64 2.85 16.6 10.1l77.95 104.27c3.57 4.72 5.57 9.23 6 13.54.72 7.14-2.9 13.65-10.87 19.53l-9.51 7.14c-4.71 3.57-9.23 5.57-13.54 6-7.06.71-13.48-2.8-19.26-10.54l-63.8 6.44c-4.11 8.74-9.7 13.47-16.76 14.18-4.32.44-9.14-.62-14.47-3.18l-10.74-5.1c-8.98-4.17-13.83-9.82-14.55-16.96-.44-4.31.63-9.14 3.18-14.47l55.54-117.74z" fill="#0da78f"/><path d="m623.72 180.31-.83.08 2.32 23.55c1.55 15.7-5.53 24.32-21.22 25.87l-11.77 1.16c-15.7 1.55-24.33-5.52-25.88-21.22l-11.62-117.74c-1.55-15.7 5.53-24.32 21.23-25.87l47.1-4.65c39.25-3.87 60.81 13.81 64.68 53.06 1.74 17.66-4.94 30.21-20.06 37.65l27.57 25.22c3.56 4.72 5.55 9.24 5.97 13.56.71 7.14-2.93 13.65-10.91 19.51l-9.52 7.12c-4.72 3.56-9.24 5.55-13.56 5.97-7.14.71-13.65-2.93-19.51-10.91l-24-32.35z" fill="#90509f"/><path d="m790.15 79.96-7.3 94.37c-1.22 15.73-9.69 22.98-25.42 21.77l-11.79-.91c-15.73-1.22-22.98-9.69-21.77-25.42l7.3-94.37c-15.73-1.22-22.99-9.69-21.77-25.42s9.69-22.98 25.42-21.77l58.98 4.56c15.73 1.22 22.98 9.69 21.77 25.42-1.22 15.73-9.69 22.98-25.42 21.77z" fill="#61bcea"/><path d="m421.01 155.3c-.4-.75 6.25 28.69 43.07 26.22 36.61-4.68 37.45-34.86 37.2-34.04-25.77 8.91-53.27 11.59-80.28 7.82z" fill="#1f4298"/><path d="m462.22 162.43c16.61-2.03 27.33-7.41 34.24-13.37-22.75 7.12-46.73 9.46-70.42 6.86 7.93 4.5 19.49 7.72 36.18 6.5z" fill="#fff"/><path d="m489 171.37c-6.76-2.84-16.08-4.13-26.21-3.14s-19.02 4.05-25.11 8.14c6.32 3.57 14.89 5.92 26.41 5.15 11.45-1.46 19.4-5.42 24.92-10.15z" fill="#f26131"/><path d="m440.63 134.42c-1.87.18-3.54-1.19-3.72-3.06l-.19-1.98c-.33-3.43-3.4-5.95-6.82-5.61-3.62.35-6.14 3.42-5.81 6.84l.19 1.98c.18 1.87-1.19 3.54-3.06 3.72s-3.54-1.19-3.72-3.06l-.19-1.98c-.7-7.17 4.57-13.58 11.74-14.27 7.37-.72 13.77 4.55 14.47 11.72l.19 1.98c.18 1.87-1.19 3.54-3.06 3.72z" fill="#1f4298"/><path d="m497.43 128.88c-1.87.18-3.54-1.19-3.72-3.06l-.19-1.98c-.33-3.43-3.4-5.95-6.82-5.61-3.62.35-6.14 3.42-5.81 6.84l.19 1.98c.18 1.87-1.19 3.54-3.06 3.72s-3.54-1.19-3.72-3.06l-.19-1.98c-.7-7.17 4.57-13.58 11.74-14.27 7.37-.72 13.77 4.55 14.47 11.72l.19 1.98c.18 1.87-1.19 3.54-3.06 3.72z" fill="#1f4298"/><path d="m224.84 355.16 3.6 23.39c2.4 15.59-4.2 24.59-19.79 26.99l-11.69 1.8c-15.59 2.4-24.59-4.19-26.99-19.79l-18.01-116.94c-2.4-15.59 4.2-24.59 19.79-26.99l46.77-7.2c38.98-6 61.47 10.48 67.47 49.47 6 38.98-10.49 61.47-49.47 67.47l-11.69 1.8z" fill="#f3bb4d"/><path d="m331.64 251 11.8.82c15.74 1.09 23.06 9.5 21.97 25.24l-6.53 94.43 23.61 1.63c15.74 1.09 23.06 9.5 21.97 25.24s-9.5 23.06-25.24 21.97l-59.02-4.08c-15.74-1.09-23.06-9.5-21.98-25.24l8.17-118.03c1.09-15.74 9.5-23.06 25.24-21.97z" fill="#ef445e"/><path d="m491.6 246.72c5.82-7.31 11.32-10.73 16.5-10.25 5.11.47 9.9 4.83 14.37 13.08l56.62 117.23c2.6 5.31 3.7 10.12 3.31 14.44-.66 7.15-5.45 12.85-14.4 17.1l-10.69 5.2c-5.31 2.6-10.12 3.71-14.44 3.31-7.07-.65-12.7-5.32-16.89-14.02l-63.86-5.85c-5.71 7.79-12.09 11.37-19.16 10.72-4.32-.4-8.86-2.36-13.6-5.88l-9.57-7.06c-8.02-5.8-11.71-12.28-11.05-19.43.4-4.32 2.36-8.85 5.88-13.6l76.99-104.98z" fill="#0da78f"/><path d="m607.34 351.75c-.07-.47-.18-.93-.32-1.39l-35.85-43.58c-3.77-4.55-5.97-8.98-6.59-13.27-1.03-7.1 2.27-13.76 9.89-19.97l9.19-7.55c4.55-3.77 8.98-5.97 13.27-6.59 7.18-1.04 13.88 2.29 20.1 9.99l10.03 12.29 6.13-14.64c3.77-9.16 9.21-14.25 16.31-15.28 4.29-.62 9.16.22 14.6 2.54l10.95 4.63c9.08 3.78 14.13 9.23 15.16 16.33.62 4.29-.23 9.16-2.54 14.6l-22.16 52.47c.02.16.01.36-.03.6.34 1.23.6 2.5.8 3.83l6.8 46.84c2.27 15.61-4.41 24.55-20.02 26.82l-11.71 1.7c-15.61 2.27-24.55-4.41-26.82-20.02l-6.8-46.84c-.18-1.25-.31-2.42-.39-3.53z" fill="#61bcea"/><g fill="#1f4298"><path d="m188.49 275.74-.17.02c-4.6.64-7.81 4.89-7.17 9.49l1.72 12.36 16.83-2.34-1.72-12.36c-.64-4.6-4.89-7.81-9.49-7.17z"/><path d="m249 267.33-.17.02c-4.6.64-7.81 4.89-7.17 9.49l1.72 12.36 16.83-2.34-1.72-12.36c-.64-4.6-4.89-7.81-9.49-7.17z"/><path d="m226.69 329.25c-27.42 3.82-38.44-10.9-38.89-11.53-1.13-1.56-.78-3.73.78-4.86 1.55-1.12 3.72-.78 4.85.76.41.55 9.32 11.94 32.31 8.74 23.33-3.25 28.64-17.07 28.69-17.21.66-1.81 2.66-2.74 4.46-2.07 1.8.66 2.73 2.66 2.07 4.46-.27.73-6.84 17.9-34.27 21.71z"/></g></svg>