<?xml version="1.0" encoding="UTF-8"?>
<svg id="a" data-name="Layer 1" xmlns="http://www.w3.org/2000/svg" viewBox="-70.21000000000001 0 479.06 479.06">
  <path d="M302.64,346.22v-55.92c-5.67-5.68-10.26-10.78-13.57-20.16-5.52-15.6-13.1-24.59-23.3-27.42-5.73-1.59-11.19-1.01-15.84,1.71-4.56,2.66-7.93,7.23-9.5,12.87-4.54,16.36,7.35,32.78,16.92,45.98,2.91,4.01,5.65,7.8,7.75,11.35,12.69,21.38,14.71,40.51,6.16,58.49-3.18,6.69-8.72,11.39-15.17,13.02-7.5,1.89-14.28-1.08-18.55-4.29-2.72-2.04-5.36-5.31-10.62-11.93-6.57-8.28-15.56-19.66-26.1-28.93-4.31-3.79-9.78-8.26-17.23-12.72-9.61-5.75-18.2-8.61-28.26-10.66-6.54-1.33-13.38-2.04-20.36-2.04-8.5,0-19.4,1.28-26.73,3.75-1.82.62-2.95,1.77-1.49,4.31,3.3,5.74,3.71,11.22,3.71,13.67,0,18-16.96,31.59-39.45,31.59-2.74,0-4.37-.05-8.3-.62-2.38-.35-7.68-1.53-13.19-3.42-6.86-2.36-12.85-5.8-12.85-5.8,6.69,67.38,63.53,120,132.66,120,73.46,0,133.03-59.42,133.31-132.83h0Z" style="fill: #1e194c;"/>
  <path d="M36.9,335.51c2.93,2.09,13.7,9.12,28.69,11.44,1.87.29,3.68.42,5.41.42,10.5,0,17.93-4.97,17.93-10.07,0-5.94-9.26-7.37-12.95-10.8-3.98-3.7-4.43-9.14.98-14.98,5.85-6.32,19.55-11.44,28.13-13.72,9.25-2.46,19.48-3.74,29.89-3.74,7.74,0,15.56.74,23.16,2.2v-141.68H36v180.28l.9.65Z" style="fill: #242414;"/>
  <path d="M302.64,131.99C302.64,65.85,250.95,6.06,181.09.04l-.57-.04v132.19h122.12v-.2Z" style="fill: #82223f;"/>
  <path d="M215.05,324.86c11.95,10.55,22.04,23.27,28.71,31.68,2.57,3.25,5.64,7.34,7.28,8.51.22-.23.51-.61.78-1.17,3.62-7.61,6.29-18.85-5.23-38.27-1.61-2.71-4.07-6.1-6.68-9.71-10.97-15.13-27.54-38.01-20.22-64.36,3.07-11.06,9.96-20.19,19.38-25.69,9.65-5.63,21.18-6.99,32.46-3.85,12.98,3.61,23.39,12.33,31.11,25.98v-93.38h-122.12v148.19c11.96,4.91,23.24,12.11,34.53,22.08Z" style="fill: #848137;"/>
  <path d="M36,131.99c0-66.14,51.69-125.93,121.55-131.95l.57-.04v132.19H36s0-.2,0-.2Z" style="fill: #5a1225;"/>
</svg>